# xmcd
#
# Track frame offsets:
#	180
#	14224
#	27723
#	44386
#	56669
#	69141
#	85248
#	101240
#	112087
#	124542
#
# Disc length: 1823 seconds
#
# Revision: 0
# Processed by: cddbd v1.5.1PL0 Copyright (c) Steve Scherf et al.
# Submitted via: dBpowerAMP V4.0
#
DISCID=8d071d0a
DTITLE=Merle Haggard  - Greatest Number One Hits
DYEAR=1900
DGENRE=Country
TTITLE0=Always Wanting You
TTITLE1=Cherokee Maiden
TTITLE2=Daddy Frank (The Guitar Man)
TTITLE3=Everybody's Had The Blues
TTITLE4=If We Make It Through December
TTITLE5=It's All In The Movies
TTITLE6=It's Not Love (But It's Not Bad)
TTITLE7=Old Man From The Mountain
TTITLE8=The Roots Of My Raising
TTITLE9=Things Aren't Funny Anymore
EXTD=
EXTT0=
EXTT1=
EXTT2=
EXTT3=
EXTT4=
EXTT5=
EXTT6=
EXTT7=
EXTT8=
EXTT9=
PLAYORDER=
